<svg xmlns="http://www.w3.org/2000/svg" fill="none" viewBox="-0.5 -0.5 24 24" id="Spotify-Icon--Streamline-Svg-Logos.svg" height="24" width="24"><desc>Spotify Icon Streamline Icon: https://streamlinehq.com</desc><path fill="#1ED760" d="M11.499928125 0.23958333333333334C5.281135416666666 0.23958333333333334 0.23958333333333334 5.281135416666666 0.23958333333333334 11.500071875000001 0.23958333333333334 17.719271875 5.281135416666666 22.760416666666668 11.499928125 22.760416666666668 17.719391666666667 22.760416666666668 22.760416666666668 17.719271875 22.760416666666668 11.500071875000001 22.760416666666668 5.281542708333333 17.719391666666667 0.24012239583333336 11.499808333333334 0.24012239583333336L11.499928125 0.23958333333333334Zm5.16393125 16.240851041666666c-0.20170520833333333 0.33079270833333335 -0.6346802083333333 0.43565833333333337 -0.9654489583333334 0.23263541666666668 -2.643826041666667 -1.6149593750000002 -5.9720458333333335 -1.9807072916666668 -9.891653125000001 -1.0851447916666668 -0.37770312500000003 0.08605833333333335 -0.7542083333333334 -0.15060208333333336 -0.8402666666666667 -0.5284729166666667 -0.08644166666666667 -0.377846875 0.14926041666666667 -0.7543520833333334 0.527921875 -0.8404104166666667 4.289356250000001 -0.9799916666666667 7.968685416666666 -0.5580375000000001 10.936811458333333 1.2559197916666667 0.33079270833333335 0.20304687500000002 0.43568229166666667 0.6346802083333333 0.23263541666666668 0.9654729166666667Zm1.3782510416666667 -3.0660916666666664c-0.25415 0.413065625 -0.7946739583333333 0.5434947916666667 -1.2074760416666668 0.28936875 -3.026776041666667 -1.8604843750000002 -7.640600000000001 -2.3992833333333334 -11.22069375 -1.3125333333333333 -0.46428854166666667 0.14025208333333333 -0.9546916666666667 -0.12142083333333334 -1.0956145833333335 -0.5849427083333334 -0.13982083333333334 -0.4643125 0.12197187500000001 -0.9537572916666667 0.5854697916666667 -1.09494375 4.089423958333334 -1.24085 9.173334375 -0.6398072916666667 12.649209375000002 1.4961979166666668 0.41280208333333335 0.25415 0.5432312499999999 0.7946979166666668 0.28910520833333336 1.2069729166666667v-0.00011979166666666667Zm0.11833020833333334 -3.1927833333333333c-3.6291604166666667 -2.1556270833333335 -9.616803125 -2.353834375 -13.081801041666667 -1.302159375 -0.5564083333333334 0.16873854166666669 -1.1448250000000002 -0.14537916666666667 -1.3134197916666668 -0.7017875 -0.16861875 -0.5566958333333333 0.14521145833333332 -1.1447052083333333 0.7020270833333334 -1.3138750000000001 3.977538541666667 -1.2075 10.589775000000001 -0.9742177083333334 14.768084375 1.506284375 0.50154375 0.29703541666666666 0.6655864583333333 0.94343125 0.36843125000000004 1.4432260416666667 -0.2958135416666667 0.5004895833333334 -0.9439343750000001 0.665490625 -1.4427947916666668 0.3683114583333334h-0.0005270833333333334Z" stroke-width="1"></path></svg>